<?xml version="1.0" encoding="UTF-8" standalone="no"?>
<!DOCTYPE svg PUBLIC "-//W3C//DTD SVG 1.1//EN" "http://www.w3.org/Graphics/SVG/1.1/DTD/svg11.dtd">
<svg width="100%" height="100%" viewBox="0 0 1785 1785" version="1.1" xmlns="http://www.w3.org/2000/svg" xmlns:xlink="http://www.w3.org/1999/xlink" xml:space="preserve" xmlns:serif="http://www.serif.com/" style="fill-rule:evenodd;clip-rule:evenodd;stroke-linejoin:round;stroke-miterlimit:2;">
    <g transform="matrix(1,0,0,1,-5831.48,2763.23)">
        <g transform="matrix(4.16667,0,0,4.16667,2723.93,-4120.79)">
            <g transform="matrix(-1,0,0,1,1920,0)">
                <rect x="745.813" y="325.813" width="428.374" height="428.374"/>
            </g>
            <g transform="matrix(1,0,0,1,812.586,688.172)">
                <path d="M0,-45.324L8.192,-45.324L27.551,-18.565C28.212,-17.707 29.401,-15.857 29.731,-15.064L30.062,-15.064L30.062,-45.324L38.321,-45.324L38.321,0L30.194,0L10.77,-26.957C10.042,-28.013 8.919,-29.864 8.589,-30.524L8.259,-30.524L8.259,0L0,0L0,-45.324Z" style="fill:white;fill-rule:nonzero;"/>
            </g>
            <g transform="matrix(1,0,0,1,816.875,430.66)">
                <path d="M0,-45.324L32.573,-45.324L32.573,-37.991L8.589,-37.991L8.589,-25.834L30.194,-25.834L30.194,-18.5L8.589,-18.5L8.589,0L0,0L0,-45.324Z" style="fill:white;fill-rule:nonzero;"/>
            </g>
            <g transform="matrix(1,0,0,1,812.586,516.498)">
                <path d="M0,-45.324L8.192,-45.324L27.551,-18.566C28.212,-17.707 29.401,-15.857 29.731,-15.064L30.062,-15.064L30.062,-45.324L38.321,-45.324L38.321,0L30.194,0L10.77,-26.957C10.042,-28.014 8.919,-29.864 8.589,-30.524L8.259,-30.524L8.259,0L0,0L0,-45.324Z" style="fill:white;fill-rule:nonzero;"/>
            </g>
            <g transform="matrix(1,0,0,1,827.938,594.935)">
                <path d="M0,-30.526L-14.469,-30.526L-14.469,-37.925L23.125,-37.925L23.125,-30.526L8.589,-30.526L8.589,7.399L0,7.399L0,-30.526Z" style="fill:white;fill-rule:nonzero;"/>
            </g>
            <g transform="matrix(1,0,0,1,972.419,407.205)">
                <path d="M0,1.586L0,0.132C0,-10.109 -4.955,-15.394 -14.073,-15.394C-23.19,-15.394 -28.08,-10.109 -28.08,0.132L-28.08,1.586C-28.08,11.694 -23.19,16.98 -14.073,16.98C-4.955,16.98 0,11.694 0,1.586M-36.933,0.793C-36.933,-15.131 -28.278,-22.662 -14.073,-22.662C0.133,-22.662 8.788,-15.131 8.788,0.793C8.788,16.716 0.133,24.248 -14.073,24.248C-28.278,24.248 -36.933,16.716 -36.933,0.793" style="fill:white;fill-rule:nonzero;"/>
            </g>
            <g transform="matrix(1,0,0,1,957.586,478.507)">
                <path d="M0,30.656C8.457,30.656 13.082,25.766 13.082,16.054L13.082,14.667C13.082,4.888 8.457,-0.001 0,-0.001L-9.581,-0.001L-9.581,30.656L0,30.656ZM-18.169,-7.334L0,-7.334C13.676,-7.334 21.935,-0.199 21.935,15.328C21.935,30.854 13.676,37.99 0,37.99L-18.169,37.99L-18.169,-7.334Z" style="fill:white;fill-rule:nonzero;"/>
            </g>
            <g transform="matrix(1,0,0,1,0,79.348)">
                <rect x="955.361" y="477.664" width="8.589" height="45.324" style="fill:white;"/>
            </g>
            <g transform="matrix(1,0,0,1,1067.51,402.911)">
                <path d="M0,10.967L0,-17.575L8.59,-17.575L8.59,10.702C8.59,17.706 12.422,21.274 19.095,21.274C25.768,21.274 29.732,17.706 29.732,10.702L29.732,-17.575L38.321,-17.575L38.321,10.967C38.321,22.794 31.119,28.542 19.095,28.542C7.136,28.542 0,22.794 0,10.967" style="fill:white;fill-rule:nonzero;"/>
            </g>
            <g transform="matrix(1,0,0,1,1094.7,488.087)">
                <path d="M0,11.496L-4.559,-0.793C-5.22,-2.511 -6.607,-6.739 -7.466,-9.448L-7.797,-9.448C-8.655,-6.739 -10.043,-2.511 -10.704,-0.793L-15.263,11.496L0,11.496ZM-12.817,-16.914L-1.982,-16.914L15.725,28.41L6.408,28.41L2.774,18.764L-17.972,18.764L-21.605,28.41L-30.459,28.41L-12.817,-16.914Z" style="fill:white;fill-rule:nonzero;"/>
            </g>
            <g transform="matrix(1,0,0,1,1100.67,578.881)">
                <path d="M0,1.586L0,0.132C0,-10.108 -4.955,-15.394 -14.072,-15.394C-23.19,-15.394 -28.08,-10.108 -28.08,0.132L-28.08,1.586C-28.08,11.694 -23.19,16.981 -14.072,16.981C-4.955,16.981 0,11.694 0,1.586M-36.933,0.793C-36.933,-15.13 -28.278,-22.662 -14.072,-22.662C0.133,-22.662 8.788,-15.13 8.788,0.793C8.788,16.716 0.133,24.248 -14.072,24.248C-28.278,24.248 -36.933,16.716 -36.933,0.793" style="fill:white;fill-rule:nonzero;"/>
            </g>
            <g transform="matrix(1,0,0,1,1001.83,674.625)">
                <path d="M0,-6.319C0.489,-7.546 1.453,-9.067 2.862,-10.713C3.093,-10.986 3.349,-11.295 3.612,-11.601C3.887,-11.922 4.159,-12.19 4.462,-12.506C7.817,-16.076 11.737,-18.861 12.65,-18.901C13.134,-18.901 13.462,-18.787 13.462,-18.549L13.474,-18.447C13.474,-17.523 12.212,-16.691 11.099,-15.944L10.284,-15.366L10.216,-15.366C8.828,-14.337 8.13,-13.873 8.13,-12.937C8.13,-12.812 8.162,-12.697 8.164,-12.564C8.251,-12.22 8.456,-11.994 8.649,-11.808C8.858,-11.626 9.021,-11.461 9.054,-11.174C9.087,-11.163 9.105,-11.072 9.112,-10.986L9.112,-10.96C9.112,-10.809 9.021,-10.445 8.791,-10.057C8.488,-9.559 8.025,-8.915 7.291,-8.033C6.383,-7.027 5.358,-6.039 4.376,-5.234C3.027,-4.111 1.76,-3.336 1.169,-3.315C0.219,-3.273 -0.279,-3.674 -0.335,-4.46C-0.389,-4.987 -0.272,-5.611 0,-6.319M27.64,-9.735C29.188,-12.111 31.289,-14.418 32.292,-15.022C34.132,-16.121 35.247,-17.287 35.233,-18.13C35.215,-18.596 34.812,-19.004 34.369,-19.458C34.132,-19.698 33.806,-20.035 33.755,-20.219C33.755,-20.336 33.755,-20.44 33.806,-20.499C33.922,-20.608 34.307,-20.666 34.947,-20.499L35.743,-20.31C37.273,-19.966 37.763,-19.8 37.763,-19.029C37.8,-18.13 36.696,-14.013 34.598,-10.287C33.755,-8.841 32.842,-7.453 31.747,-6.319C30.169,-4.747 28.573,-3.899 26.985,-3.883C26.51,-3.883 25.669,-4.048 25.669,-5.045C25.611,-6.219 26.475,-8.01 27.64,-9.735M21.799,-34.697C21.799,-36.259 22.803,-37.212 24.426,-37.212C32.385,-37.212 36.566,-25.699 36.6,-24.911C36.6,-24.795 36.6,-24.713 36.174,-24.713C33.368,-24.713 21.799,-29.183 21.799,-34.697M81.253,-18.817C81.33,-18.817 81.412,-18.747 81.431,-18.715C81.431,-17.017 76.51,-12.534 75.082,-12.534C74.98,-12.534 74.803,-12.623 74.803,-12.755C74.803,-14.108 79.803,-18.817 81.253,-18.817M-48.204,27.275C-50.622,29.699 -52.678,31.071 -53.849,31.071C-54.811,31.071 -55.251,30.654 -55.251,29.655C-55.251,26.139 -42.359,16.295 -40.827,16.267L-40.75,16.267L-40.734,16.358C-40.734,18.072 -44.441,23.493 -48.204,27.275M-31.95,4.37C-51.076,15.925 -64.585,24.776 -64.585,33.318C-64.585,37.861 -60.062,37.861 -57.885,37.861C-56.399,37.861 -52.303,37.384 -46.053,32.962C-38.154,27.405 -29.768,17.786 -21.1,4.37C-20.369,3.238 -19.27,2.479 -18.076,1.645L-17.139,1.019L-16.802,0.767C-11.874,-2.791 -10.482,-3.492 -10.069,-3.552C-9.715,-3.611 -9.618,-3.51 -9.573,-3.492C-9.531,-3.406 -9.531,-3.357 -9.531,-3.229C-9.531,-3.147 -9.573,-3.033 -9.573,-2.942C-9.618,-2.84 -9.683,-2.526 -9.804,-2.137C-10.011,-1.452 -10.277,-0.497 -10.277,0.6C-10.277,2.542 -8.288,4.596 -5.379,4.596C1.083,4.596 5.712,-0.055 9.513,-4.074C9.732,-4.344 9.951,-4.6 10.216,-4.847C12.151,-6.959 13.865,-8.841 15.481,-9.612C16.005,-9.898 16.518,-10.057 17.035,-10.057C17.505,-10.057 17.505,-9.898 17.505,-9.761L17.505,-9.565C17.449,-9.346 17.379,-9.067 17.314,-8.75C16.955,-7.325 16.343,-4.775 16.273,-2.84L16.273,-2.567C16.273,1.959 18.849,4.37 23.753,4.37C27.376,4.37 30.676,2.318 33.487,-0.565C36.377,-3.538 38.734,-7.392 40.319,-10.986C41.847,-14.363 42.674,-17.464 42.674,-19.248C42.674,-19.574 42.779,-19.681 43.093,-19.681C43.689,-19.681 45.207,-19.518 46.134,-19.413L46.551,-19.38C47.205,-19.337 48.323,-18.817 48.323,-17.192C48.323,-16.114 47.534,-14.248 46.425,-12.071C44.434,-8.21 41.314,-3.406 39.216,-0.246C39.048,0.02 38.876,0.271 38.717,0.53L37.392,2.565C37.332,2.667 37.127,2.912 37.127,3.21C37.127,3.285 37.148,3.373 37.19,3.448C37.301,3.655 37.476,3.881 38.005,3.881L46.106,3.881C46.6,3.881 47.035,3.583 47.42,3.017C47.534,2.877 48.363,1.58 49.581,-0.281C50.463,-1.631 51.614,-3.357 52.764,-5.159L54.506,-7.828C54.685,-8.059 54.914,-8.24 55.109,-8.24C55.202,-8.24 55.24,-8.182 55.379,-7.621C55.661,-6.636 56.143,-4.996 59.576,-4.996C60.54,-4.996 61.425,-5.294 62.051,-5.506C62.244,-5.565 62.454,-5.656 62.549,-5.656L62.549,-5.506C62.549,-5.371 62.454,-5.057 62.354,-4.747C62.142,-4.111 61.872,-3.213 61.813,-2.137C61.813,-1.887 61.767,-1.585 61.767,-1.319L61.767,-1.261C61.767,0.376 62.051,2.318 63.243,3.562C64.044,4.426 65.139,4.857 66.494,4.857C72.768,4.857 80.182,-1.54 82.967,-3.969C83.212,-4.181 83.471,-4.414 83.65,-4.549C83.48,-4.048 82.781,-2.269 79.926,1.855C78.156,4.381 75.569,7.823 71.794,12.39C68.856,15.969 66.445,18.829 64.275,21.418C58.206,28.521 55.449,31.8 55.449,34.036C55.449,35.183 55.815,36.059 56.353,36.758C57.214,37.861 58.572,38.337 59.401,38.337C63.327,38.337 69.424,31.8 77.067,19.365C81.233,12.604 84.418,6.913 87.266,1.899C90.021,-2.987 91.451,-5.762 93.684,-9.067C95.277,-11.444 97.687,-14.735 99.334,-16.33C102.182,-19.104 103.7,-21.241 103.7,-22.459C103.7,-23.659 102.929,-24.886 101.506,-24.886C100.053,-24.886 95.939,-22.746 90.769,-17.161L89.174,-15.434C84.418,-10.154 79.004,-4.258 74.193,-4.258C72.265,-4.258 71.894,-5.443 71.894,-6.442C71.894,-7.292 72.595,-7.977 73.776,-8.331C78.944,-9.866 87.525,-16.782 87.525,-21.754C87.525,-23.209 86.766,-24.7 84.952,-24.7C82.912,-24.7 77.872,-23.882 71.354,-17.523C70.336,-16.54 69.275,-15.366 68.173,-14.039C67.34,-13.021 66.461,-12.446 65.942,-12.446C65.53,-12.446 64.72,-13.55 64.72,-16.195C64.72,-16.556 64.731,-16.882 64.762,-17.178C64.934,-19.283 65.651,-20.62 66.166,-21.635C66.52,-22.315 66.801,-22.867 66.801,-23.433C66.801,-23.871 66.72,-24.213 66.52,-24.479C66.236,-24.795 65.782,-24.97 65.092,-24.97C63.555,-24.97 61.324,-22.911 59.534,-21.216C58.896,-20.608 58.074,-19.842 57.785,-19.698C57.543,-19.872 57.154,-20.727 56.886,-21.253C56.588,-21.877 56.332,-22.497 55.989,-22.911C54.878,-24.404 53.397,-24.795 49.113,-24.795C48.072,-24.795 47.224,-24.76 46.425,-24.713L44.066,-24.625C41.982,-24.625 41.768,-24.739 41.502,-25.387L41.428,-25.52C39.786,-29.513 33.461,-42.556 20.791,-42.556C17.635,-42.556 15.391,-41.348 14.501,-39.172C14.198,-38.432 14.047,-37.598 14.047,-36.662C14.047,-33.157 15.754,-26.737 27.288,-22.911L27.474,-22.853C26.771,-21.677 22.44,-16.114 18.467,-15.434C18.357,-15.41 18.271,-15.434 18.197,-15.483C18.138,-15.574 18.034,-15.708 18.034,-15.841C18.034,-15.944 18.138,-16.211 18.197,-16.484C18.42,-17.225 18.751,-18.342 18.751,-19.842C18.751,-21.004 18.562,-22.036 18.162,-22.853C17.414,-24.479 15.863,-25.361 13.67,-25.361C9.473,-25.361 4.762,-23.198 -6.493,-12.311C-6.8,-11.987 -7.151,-11.64 -7.506,-11.295C-8.127,-10.7 -9.217,-9.835 -10.277,-9.225C-10.898,-8.855 -11.529,-8.629 -12.005,-8.606C-11.942,-8.662 -11.904,-8.75 -11.807,-8.855C-11.762,-8.973 -11.602,-9.211 -11.318,-9.565C-10.833,-10.287 -9.934,-11.493 -8.952,-12.812C-6.73,-15.883 -3.922,-19.742 -3.172,-20.573L-2.827,-20.96C-1.665,-22.245 -1.15,-22.867 -1.15,-23.451C-1.15,-24.313 -2.219,-24.886 -3.295,-24.886C-4.096,-24.886 -7.631,-24.313 -10.372,-21.66L-11.874,-20.17C-13.157,-18.861 -15.041,-16.959 -17.219,-14.867C-18.055,-14.069 -18.926,-13.261 -19.857,-12.399C-24.92,-7.772 -30.674,-3.166 -33.78,-3.166C-35.105,-3.166 -35.93,-4.111 -35.93,-5.73C-35.93,-7.099 -34.034,-11.552 -30.497,-16.484C-30.054,-17.161 -29.533,-17.799 -29.004,-18.447C-27.477,-20.41 -25.663,-22.41 -23.678,-24.28C-20.612,-27.107 -17.395,-29.359 -14.301,-31.073C-8.928,-34.045 -3.831,-35.454 -0.279,-35.454C1.169,-35.454 3.093,-35.274 5.358,-34.927L5.533,-34.89C5.75,-34.857 5.929,-34.857 6.078,-34.927C6.241,-34.99 6.374,-35.109 6.476,-35.288C6.651,-35.6 10.926,-43.166 11.099,-43.481C11.194,-43.627 11.194,-43.812 11.138,-43.984C11.085,-44.149 10.947,-44.256 10.782,-44.303C10.444,-44.463 10,-44.505 9.538,-44.584C9.087,-44.643 8.649,-44.656 8.162,-44.656C1.975,-44.656 -12.568,-41.736 -27.677,-30.717C-31.899,-27.673 -35.364,-24.625 -38.219,-21.812C-38.668,-21.335 -39.12,-20.888 -39.539,-20.41C-46.248,-13.261 -48.861,-7.057 -48.861,-2.956C-48.861,1.284 -45.839,3.734 -40.541,3.734C-35.473,3.734 -32.346,2.076 -30.453,1.126C-29.708,0.702 -29.083,0.376 -28.769,0.376C-28.692,0.376 -28.685,0.397 -28.685,0.451C-28.685,1.019 -30.143,3.21 -31.95,4.37M103.479,-25.31C104.702,-25.31 108.6,-27.766 108.6,-31.25C108.6,-32.655 107.605,-34.159 106.117,-34.159C104.171,-34.159 100.279,-30.105 100.279,-28.039C100.279,-26.416 102.534,-25.31 103.479,-25.31" style="fill:white;fill-rule:nonzero;"/>
            </g>
        </g>
    </g>
</svg>
